<?xml version="1.0" standalone="no"?>
<!DOCTYPE svg PUBLIC "-//W3C//DTD SVG 20010904//EN"
 "http://www.w3.org/TR/2001/REC-SVG-20010904/DTD/svg10.dtd">
<svg version="1.0" xmlns="http://www.w3.org/2000/svg"
 width="237.000000pt" height="236.000000pt" viewBox="0 0 237.000000 236.000000"
 preserveAspectRatio="xMidYMid meet">

<g transform="translate(0.000000,236.000000) scale(0.100000,-0.100000)"
fill="#000000" stroke="none">
<path d="M725 2344 c-59 -21 -110 -67 -139 -126 l-26 -52 0 -907 c0 -624 -3
-924 -11 -959 -19 -90 -106 -160 -200 -160 -33 0 -69 -38 -69 -73 0 -14 10
-35 22 -47 22 -20 30 -20 847 -20 883 0 872 0 977 50 101 50 197 177 223 298
16 76 16 1786 -1 1833 -23 68 -65 116 -130 148 l-61 31 -696 -1 c-577 0 -703
-3 -736 -15z m916 -652 c27 -23 30 -75 5 -100 -15 -15 -51 -17 -371 -17 -386
0 -376 -1 -390 57 -5 21 -1 33 19 52 l25 26 344 0 c320 0 346 -1 368 -18z
m370 -439 c26 -26 28 -67 4 -93 -18 -19 -34 -20 -555 -20 -505 0 -538 1 -553
18 -31 34 -26 86 11 106 23 13 100 15 549 13 520 -2 523 -2 544 -24z m-11
-478 c26 -13 30 -21 30 -55 0 -73 22 -70 -573 -70 l-528 0 -24 25 c-14 13 -25
34 -25 45 0 12 11 32 25 45 l24 25 521 0 c447 0 525 -2 550 -15z"/>
<path d="M142 1774 c-29 -14 -65 -42 -82 -62 -62 -75 -61 -63 -58 -788 l3
-659 26 -56 c15 -31 44 -75 64 -98 l38 -42 17 52 c10 28 26 63 37 78 28 37 89
69 146 77 94 13 87 -54 87 786 l0 738 -113 0 c-102 0 -118 -3 -165 -26z"/>
</g>
</svg>
